<svg width="32" height="32" viewBox="0 0 32 32" fill="none" xmlns="http://www.w3.org/2000/svg">
<path fill-rule="evenodd" clip-rule="evenodd" d="M13.0711 5.29289C13.4616 4.90237 14.0947 4.90237 14.4853 5.29289C14.8758 5.68342 14.8758 6.31658 14.4853 6.70711L9.60661 11.5858H19.5563V11.6047C22.9126 11.86 25.5563 14.6641 25.5563 18.0857C25.5563 21.5074 22.9126 24.3115 19.5563 24.5668V24.5858H16.5563C16.0041 24.5858 15.5563 24.138 15.5563 23.5858C15.5563 23.0335 16.0041 22.5858 16.5563 22.5858H19.5563V22.5583C21.8063 22.3096 23.5563 20.402 23.5563 18.0857C23.5563 15.7695 21.8063 13.8619 19.5563 13.6132V13.5858H10.0502L14.4853 18.0208C14.8758 18.4113 14.8758 19.0445 14.4853 19.435C14.0947 19.8256 13.4616 19.8256 13.0711 19.435L7.4142 13.7782L5.99999 12.364L7.4142 10.9497L13.0711 5.29289Z" fill="#514F4D"/>
</svg>
