<svg width="16" height="16" viewBox="0 0 16 16" fill="none" xmlns="http://www.w3.org/2000/svg">
<path fill-rule="evenodd" clip-rule="evenodd" d="M13.8047 4.19519C13.9297 4.32021 13.9999 4.48975 13.9999 4.66652C13.9999 4.8433 13.9297 5.01284 13.8047 5.13786L7.138 11.8045C7.01298 11.9295 6.84345 11.9997 6.66667 11.9997C6.48989 11.9997 6.32036 11.9295 6.19534 11.8045L2.862 8.47119C2.79833 8.40969 2.74754 8.33613 2.7126 8.25479C2.67766 8.17346 2.65927 8.08598 2.6585 7.99746C2.65773 7.90894 2.6746 7.82115 2.70812 7.73922C2.74164 7.65729 2.79114 7.58286 2.85374 7.52026C2.91633 7.45767 2.99077 7.40816 3.0727 7.37464C3.15463 7.34112 3.24242 7.32425 3.33094 7.32502C3.41946 7.32579 3.50694 7.34418 3.58827 7.37912C3.66961 7.41406 3.74317 7.46485 3.80467 7.52852L6.66667 10.3905L12.862 4.19519C12.987 4.07021 13.1566 4 13.3333 4C13.5101 4 13.6797 4.07021 13.8047 4.19519Z" fill="white"/>
</svg>
