<svg width="64" height="65" viewBox="0 0 64 65" fill="none" xmlns="http://www.w3.org/2000/svg">
<g clip-path="url(#clip0_4001_1214)">
<path d="M40.9871 43.0641C40.9057 43.3324 40.7294 43.5612 40.4919 43.7065C40.2543 43.8519 39.9721 43.9037 39.6992 43.8521C39.4337 43.7698 39.2074 43.5916 39.0636 43.3515C38.9198 43.1113 38.8686 42.8261 38.9196 42.5501L40.2075 37.2967V26.3331C40.2231 26.1559 40.1822 25.9782 40.0907 25.8261C39.9992 25.6741 39.862 25.5556 39.6992 25.488C39.5626 25.4334 39.4167 25.4063 39.2699 25.4081C39.1266 25.406 38.9844 25.4332 38.8519 25.488C38.6945 25.5513 38.5603 25.6619 38.4673 25.8049C38.3743 25.9479 38.3272 26.1164 38.3322 26.2875V27.5094C38.3322 27.7957 38.2197 28.0702 38.0195 28.2726C37.8193 28.475 37.5477 28.5887 37.2646 28.5887C36.9814 28.5887 36.7099 28.475 36.5096 28.2726C36.3094 28.0702 36.197 27.7957 36.197 27.5094V24.7114C36.2099 24.5331 36.1666 24.3552 36.0732 24.2034C35.9798 24.0515 35.8412 23.9335 35.6773 23.8663C35.5407 23.8117 35.3949 23.7846 35.248 23.7864C35.1049 23.786 34.963 23.8132 34.83 23.8663C34.6738 23.93 34.541 24.0411 34.45 24.1843C34.3589 24.3275 34.314 24.4957 34.3216 24.6658V27.5323C34.3052 27.8135 34.1865 28.0787 33.9884 28.2769C33.7903 28.4751 33.5267 28.5922 33.2483 28.6058C33.1084 28.6073 32.9697 28.5806 32.8401 28.5272C32.7106 28.4738 32.5929 28.3948 32.494 28.2948C32.3951 28.1948 32.317 28.0758 32.2641 27.9449C32.2113 27.814 32.1848 27.6737 32.1864 27.5323V24.3003C32.1965 24.1181 32.151 23.9371 32.056 23.7819C31.961 23.6266 31.8212 23.5046 31.6554 23.4324C31.387 23.3243 31.0878 23.3243 30.8194 23.4324C30.659 23.4958 30.522 23.6077 30.427 23.7528C30.3319 23.898 30.2835 24.0692 30.2884 24.2432V27.5323C30.3037 27.6818 30.2878 27.8329 30.2417 27.9758C30.1956 28.1187 30.1203 28.2502 30.0207 28.3618C29.9212 28.4734 29.7995 28.5627 29.6636 28.6237C29.5278 28.6848 29.3808 28.7164 29.2321 28.7164C29.0834 28.7164 28.9364 28.6848 28.8005 28.6237C28.6647 28.5627 28.543 28.4734 28.4434 28.3618C28.3439 28.2502 28.2686 28.1187 28.2225 27.9758C28.1764 27.8329 28.1605 27.6818 28.1758 27.5323V24.5744C28.179 24.4008 28.13 24.2302 28.0351 24.0854C27.9403 23.9406 27.8042 23.8284 27.6448 23.7636C27.5117 23.7104 27.3699 23.6833 27.2268 23.6836C27.0801 23.6842 26.9347 23.7113 26.7975 23.7636C26.6336 23.8307 26.4949 23.9487 26.4016 24.1006C26.3082 24.2524 26.2648 24.4303 26.2778 24.6087V34.3503C26.2778 34.635 26.1659 34.908 25.9668 35.1094C25.7676 35.3107 25.4975 35.4238 25.2158 35.4238C24.9342 35.4238 24.6641 35.3107 24.4649 35.1094C24.2658 34.908 24.1539 34.635 24.1539 34.3503V29.6222C24.158 29.4499 24.1106 29.2803 24.0179 29.1357C23.9252 28.991 23.7915 28.878 23.6342 28.8114C23.4976 28.7568 23.3518 28.7296 23.2049 28.7314C23.0618 28.7311 22.92 28.7582 22.7869 28.8114C22.623 28.8786 22.4843 28.9966 22.391 29.1484C22.2976 29.3003 22.2543 29.4782 22.2672 29.6565V35.0583C22.2672 37.1711 22.3463 37.2739 23.397 38.6786L23.702 39.0897L26.018 42.1504C26.165 42.3761 26.2225 42.6495 26.1789 42.9161C26.1353 43.1827 25.9938 43.4229 25.7827 43.5887C25.5716 43.7545 25.3065 43.8337 25.0401 43.8105C24.7738 43.7874 24.5259 43.6636 24.3459 43.4638L22.0187 40.4031L21.7136 40.0034C20.2111 38.0276 20.0981 37.8906 20.0981 35.0583V29.6565C20.0704 29.029 20.2432 28.4091 20.5912 27.8887C20.9391 27.3683 21.4436 26.975 22.03 26.7671C22.4191 26.6138 22.8324 26.5326 23.2501 26.5273C23.5721 26.5264 23.8924 26.5765 24.1991 26.6758V24.6087C24.1726 23.9993 24.3377 23.3971 24.6705 22.8884C25.0033 22.3796 25.4868 21.9904 26.0519 21.7764C26.4328 21.6074 26.8447 21.5218 27.2607 21.5251C27.6802 21.5222 28.0958 21.6078 28.4808 21.7764C28.6851 21.854 28.8787 21.9576 29.057 22.0847C29.344 21.8137 29.6769 21.5971 30.0398 21.4452C30.4298 21.296 30.843 21.2187 31.26 21.2168C31.6733 21.2178 32.083 21.2952 32.4688 21.4452C32.8653 21.5968 33.224 21.8346 33.5195 22.1419C33.6849 22.0322 33.8633 21.9439 34.0504 21.8792C34.4339 21.7117 34.8472 21.6253 35.2649 21.6253C35.6826 21.6253 36.0959 21.7117 36.4794 21.8792C36.8459 22.0194 37.1797 22.2349 37.4597 22.512C37.7397 22.7892 37.9598 23.122 38.1062 23.4895C38.4658 23.3441 38.8487 23.2666 39.236 23.2611C39.6543 23.2595 40.0688 23.341 40.4561 23.5009C41.02 23.7199 41.502 24.1119 41.8343 24.6219C42.1666 25.1319 42.3325 25.7343 42.3089 26.3446V37.4224C42.3201 37.5096 42.3201 37.5978 42.3089 37.685L40.9871 43.0641Z" fill="#8B8785"/>
<path d="M13.1615 31.4838C13.3094 31.4683 13.4589 31.4844 13.6002 31.531C13.7416 31.5776 13.8717 31.6537 13.9821 31.7544C14.0925 31.855 14.1808 31.978 14.2412 32.1153C14.3016 32.2527 14.3329 32.4013 14.3329 32.5516C14.3329 32.7019 14.3016 32.8505 14.2412 32.9879C14.1808 33.1252 14.0925 33.2482 13.9821 33.3488C13.8717 33.4495 13.7416 33.5256 13.6002 33.5722C13.4589 33.6188 13.3094 33.6349 13.1615 33.6194H3.62648L5.3211 35.3325C5.4205 35.4322 5.4995 35.5507 5.55358 35.6813C5.60766 35.8119 5.63576 35.952 5.63628 36.0936C5.63681 36.2352 5.60974 36.3755 5.55663 36.5065C5.50352 36.6375 5.42541 36.7566 5.32675 36.8571C5.22809 36.9576 5.11082 37.0374 4.98163 37.0921C4.85244 37.1468 4.71386 37.1752 4.57381 37.1757C4.43376 37.1762 4.29498 37.1489 4.16539 37.0952C4.0358 37.0415 3.91794 36.9625 3.81854 36.8628L0.316335 33.3225C0.128978 33.1126 0.0252686 32.84 0.0252686 32.5573C0.0252686 32.2746 0.128978 32.002 0.316335 31.7921L3.81854 28.2518C3.91717 28.152 4.03428 28.0728 4.16319 28.0188C4.2921 27.9648 4.43028 27.937 4.56982 27.937C4.70936 27.937 4.84754 27.9648 4.97645 28.0188C5.10536 28.0728 5.22247 28.152 5.3211 28.2518C5.50846 28.4617 5.61217 28.7343 5.61217 29.017C5.61217 29.2997 5.50846 29.5723 5.3211 29.7821L3.62648 31.4952L13.1615 31.4838Z" fill="#8B8785"/>
<path d="M50.8385 33.6191C50.6906 33.6346 50.5411 33.6185 50.3997 33.5719C50.2584 33.5253 50.1283 33.4492 50.0179 33.3485C49.9075 33.2479 49.8192 33.1249 49.7588 32.9876C49.6983 32.8502 49.6671 32.7016 49.6671 32.5513C49.6671 32.401 49.6983 32.2524 49.7588 32.115C49.8192 31.9777 49.9075 31.8547 50.0179 31.7541C50.1283 31.6534 50.2584 31.5773 50.3997 31.5307C50.5411 31.4841 50.6906 31.468 50.8385 31.4835H60.3396L58.6676 29.7704C58.4802 29.5606 58.3765 29.2879 58.3765 29.0053C58.3765 28.7226 58.4802 28.4499 58.6676 28.2401C58.7662 28.1403 58.8833 28.0611 59.0122 28.0071C59.1411 27.9531 59.2793 27.9253 59.4189 27.9253C59.5584 27.9253 59.6966 27.9531 59.8255 28.0071C59.9544 28.0611 60.0715 28.1403 60.1701 28.2401L63.6724 31.7804C63.7742 31.8795 63.8552 31.9983 63.9105 32.1298C63.9658 32.2613 63.9944 32.4027 63.9944 32.5456C63.9944 32.6885 63.9658 32.8299 63.9105 32.9613C63.8552 33.0928 63.7742 33.2117 63.6724 33.3107L60.1701 36.8511C59.9694 37.0525 59.6977 37.1651 59.4149 37.164C59.132 37.1629 58.8612 37.0483 58.6619 36.8454C58.4627 36.6424 58.3513 36.3678 58.3524 36.0819C58.3535 35.7959 58.4668 35.5222 58.6676 35.3207L60.3396 33.6191H50.8385Z" fill="#8B8785"/>
<path d="M31.8701 62.0789C25.5904 62.1763 19.4507 60.2007 14.3822 56.4518C9.3137 52.7028 5.59305 47.385 3.78464 41.3052H1.27661C3.16438 48.0182 7.18021 53.919 12.7072 58.101C18.2341 62.2831 24.9665 64.5152 31.8701 64.4544C38.7736 64.5152 45.506 62.2831 51.033 58.101C56.5599 53.919 60.5758 48.0182 62.4636 41.3052H59.9555C58.1471 47.385 54.4265 52.7028 49.358 56.4518C44.2895 60.2007 38.1497 62.1763 31.8701 62.0789Z" fill="#8B8785"/>
<path d="M31.87 2.93255C37.9917 2.99314 43.9471 4.95369 48.9301 8.54879C53.9131 12.1439 57.683 17.1999 59.7295 23.0325H62.2715C58.2044 10.47 46.1274 0.5 31.87 0.5C17.6127 0.5 5.53571 10.47 1.46863 23.0325H4.01055C6.05708 17.1999 9.827 12.1439 14.81 8.54879C19.793 4.95369 25.7484 2.99314 31.87 2.93255Z" fill="#8B8785"/>
</g>
<defs>
<clipPath id="clip0_4001_1214">
<rect width="64" height="64" fill="white" transform="translate(0 0.5)"/>
</clipPath>
</defs>
</svg>
