<svg width="27" height="27" viewBox="0 0 27 27" fill="none" xmlns="http://www.w3.org/2000/svg">
<path d="M26.4466 24.5533L22.6733 20.7933C24.7189 18.2662 25.7167 15.0505 25.4612 11.8093C25.2056 8.56812 23.716 5.54857 21.2997 3.3733C18.8833 1.19803 15.7243 0.0328992 12.4742 0.118171C9.22406 0.203443 6.13055 1.53261 3.83157 3.8316C1.53258 6.13058 0.203412 9.22409 0.11814 12.4742C0.0328686 15.7244 1.198 18.8833 3.37327 21.2997C5.54854 23.7161 8.56809 25.2056 11.8093 25.4612C15.0505 25.7168 18.2662 24.7189 20.7933 22.6733L24.5533 26.4467C24.6772 26.5716 24.8247 26.6708 24.9872 26.7385C25.1497 26.8062 25.3239 26.8411 25.5 26.8411C25.676 26.8411 25.8503 26.8062 26.0127 26.7385C26.1752 26.6708 26.3227 26.5716 26.4466 26.4467C26.5716 26.3227 26.6708 26.1752 26.7385 26.0128C26.8062 25.8503 26.841 25.676 26.841 25.5C26.841 25.324 26.8062 25.1497 26.7385 24.9872C26.6708 24.8247 26.5716 24.6773 26.4466 24.5533ZM2.83329 12.8333C2.83329 10.8555 3.41978 8.92211 4.5186 7.27762C5.61741 5.63313 7.1792 4.3514 9.00646 3.59453C10.8337 2.83765 12.8444 2.63962 14.7842 3.02547C16.724 3.41132 18.5058 4.36373 19.9044 5.76225C21.3029 7.16078 22.2553 8.94261 22.6411 10.8824C23.027 12.8222 22.829 14.8329 22.0721 16.6602C21.3152 18.4874 20.0335 20.0492 18.389 21.148C16.7445 22.2468 14.8111 22.8333 12.8333 22.8333C10.1811 22.8333 7.63759 21.7798 5.76222 19.9044C3.88686 18.029 2.83329 15.4855 2.83329 12.8333Z" fill="white"/>
</svg>
